<svg xmlns="http://www.w3.org/2000/svg" viewBox="0 0 800 450" width="800" height="450">
<defs><linearGradient id="bg" x1="0" y1="0" x2="1" y2="1"><stop offset="0" stop-color="#065f46"/><stop offset="1" stop-color="#fbbf24"/></linearGradient>
<linearGradient id="in" x1="0" y1="0" x2="1" y2="1"><stop offset="0" stop-color="#065f46"/><stop offset="1" stop-color="#fbbf24" stop-opacity=".85"/></linearGradient></defs>
<rect width="800" height="450" fill="url(#bg)"/>
<circle cx="90" cy="90" r="150" fill="#fff" opacity=".08"/><circle cx="730" cy="380" r="190" fill="#000" opacity=".12"/><circle cx="700" cy="70" r="60" fill="#fff" opacity=".07"/>
<rect x="120" y="50" width="560" height="310" rx="14" fill="#0b0f19" stroke="#fff" stroke-opacity=".35" stroke-width="4"/>
<rect x="132" y="62" width="536" height="286" rx="8" fill="url(#in)"/><rect x="330" y="360" width="140" height="22" fill="#0b0f19"/><rect x="290" y="380" width="220" height="12" rx="6" fill="#0b0f19"/>
<g transform="translate(260 205) scale(1.3)"><circle cx="0" cy="0" r="58" fill="#fff" opacity=".14"/><g transform="scale(.8)"><g transform="translate(-50 -50)" fill="none" stroke="#fff" stroke-width="5" stroke-linecap="round" stroke-linejoin="round"><rect x="14" y="24" width="72" height="52" rx="4"/><path d="M50 24 V76"/><circle cx="50" cy="50" r="10"/><rect x="14" y="38" width="12" height="24"/><rect x="74" y="38" width="12" height="24"/></g></g></g>
<rect x="380" y="150" width="240" height="10" rx="5" fill="#fff" opacity=".28"/><rect x="380" y="170" width="168.0" height="10" rx="5" fill="#fff" opacity=".18"/><rect x="380" y="220" width="240" height="10" rx="5" fill="#fff" opacity=".28"/><rect x="380" y="240" width="168.0" height="10" rx="5" fill="#fff" opacity=".18"/><rect x="380" y="285" width="120" height="30" rx="15" fill="#fff" opacity=".9"/>
</svg>